<svg id="Warstwa_1" data-name="Warstwa 1" xmlns="http://www.w3.org/2000/svg" width="10.94" height="10.94" viewBox="0 0 10.94 10.94"><defs><style>.cls-1{fill:#fff;}</style></defs><path class="cls-1" d="M9.34,1.6a5.47,5.47,0,1,0,0,7.74A5.49,5.49,0,0,0,9.34,1.6Zm-.6,7.14a4.62,4.62,0,1,1,0-6.54A4.64,4.64,0,0,1,8.74,8.74Z"/><path class="cls-1" d="M7.17,6.61,6,5.47,7.17,4.33a.4.4,0,0,0,0-.57.4.4,0,0,0-.56,0L5.47,4.9,4.33,3.76a.4.4,0,0,0-.57.57L4.9,5.47,3.76,6.61a.4.4,0,0,0,0,.56.4.4,0,0,0,.29.12.39.39,0,0,0,.28-.12L5.47,6,6.61,7.17a.39.39,0,0,0,.56,0A.39.39,0,0,0,7.17,6.61Z"/></svg>